<svg version="1.2" xmlns="http://www.w3.org/2000/svg" viewBox="0 0 193 193" width="193" height="193"><style>.a{fill:#3174b9}.b{fill:#ca3132}</style><path fill-rule="evenodd" class="a" d="m80.4 101.7c0 0-4.6 2.7 3.3 3.6 9.5 1.1 14.4 0.9 24.9-1 0 0 2.8 1.7 6.6 3.2-23.6 10.1-53.4-0.6-34.8-5.8zm-2.9-13.2c0 0-5.2 3.9 2.7 4.7 10.2 1 18.3 1.1 32.2-1.6 0 0 1.9 2 5 3-28.6 8.4-60.3 0.7-39.9-6.1z"/><path fill-rule="evenodd" class="b" d="m101.8 66.1c5.8 6.7-1.5 12.8-1.5 12.8 0 0 14.7-7.7 8-17.2-6.4-8.9-11.2-13.3 15.1-28.6 0 0-41.3 10.3-21.6 33z"/><path fill-rule="evenodd" class="a" d="m57.8 120.6c-17.7-2.8 8.5-12.8 13.3-9.4 0 0-1.6-0.1-4.2 0.4-2.5 0.6-10.6 3.2-6.3 5 12 5.2 55 4 68.7-0.1 7.1-2.2 3.7-5 3.7-5 12.5 5.6-27.1 16.9-75.2 9.1zm24.8-45.7c0 0-21.9 5.2-7.8 7.1 6 0.8 17.9 0.6 29-0.4 9.1-0.7 18.2-2.4 18.2-2.4 0 0-3.2 1.4-5.5 3-22.3 5.9-65.3 3.1-52.9-2.9 10.5-5 19-4.4 19-4.4zm39.3 21.9c22.6-11.7 12.2-23 4.8-21.5-1.7 0.4-2.5 0.7-2.5 0.7 0 0 0.6-1 1.9-1.5 14.4-5.1 25.5 15-4.7 22.9 0 0 0.4-0.3 0.5-0.6z"/><path fill-rule="evenodd" class="b" d="m108.3 8.5c0 0 12.5 12.5-11.9 31.8-19.6 15.5-4.5 24.3 0 34.3-11.5-10.3-19.8-19.3-14.2-27.8 8.2-12.4 31.1-18.4 26.1-38.3z"/><path fill-rule="evenodd" class="a" d="m84.8 128.7c21.7 1.4 55.1-0.8 55.8-11.1 0 0-1.5 3.9-17.9 7-18.5 3.5-41.4 3.1-54.9 0.9 0 0 2.7 2.3 17 3.2z"/><path fill-rule="evenodd" class="b" d="m139.6 147.1h-0.6v-0.4h1.8v0.4h-0.7v1.8h-0.5zm3.6 0.1l-0.7 1.8h-0.3l-0.6-1.8v1.8h-0.5v-2.2h0.7l0.6 1.5 0.6-1.5h0.6v2.2h-0.4v-1.8zm-60.7 27.1l-0.5-3c-2.4 2.2-5 3.6-8.5 3.6-5.4 0-8.3-2.8-8.3-7.6 0-5.7 4.4-9.5 14.1-9.5h2v-2.5c0-3.3-1.8-4.9-5.7-4.9-2.9 0-5.9 0.8-8.1 1.6l-0.9-3.5c2.9-1.3 6.5-2.3 10.5-2.3 6.9 0 9.8 3.4 9.8 8.4v19.7zm-1.2-6.3v-6.6h-2.4c-6.4 0-8 2.1-8 5 0 2.7 1.5 4.3 4.2 4.3 2 0 4.2-1 6.2-2.7zm24.5 6.3h-7l-8.5-27.6h6.1l5.3 17 1.2 5.1c2.6-7.4 4.5-14.9 5.5-22.1h5.9c-1.6 9.1-4.5 19.1-8.5 27.6zm28.3 0l-0.5-2.9c-2.4 2.1-5 3.5-8.5 3.5-5.5 0-8.3-2.8-8.3-7.6 0-5.7 4.3-9.5 14-9.5h2v-2.5c0-3.3-1.7-4.9-5.7-4.9-2.8 0-5.8 0.8-8.1 1.6l-0.8-3.5c2.9-1.3 6.4-2.3 10.5-2.3 6.9 0 9.8 3.4 9.8 8.4v19.7zm-1.2-12.9h-2.4c-6.4 0-8 2.1-8 5 0 2.7 1.5 4.3 4.2 4.3 2 0 4.1-1 6.2-2.7zm-73.8 17.6c-1.7 2.3-4.3 4.2-7.1 5.2l-2.8-3.2c2.2-1.2 4-3 4.9-4.6 0.7-1.5 1.1-3.4 1.1-8v-31.5h6v31c0 6.2-0.5 8.7-2.1 11.1z"/></svg>